<svg t="1628362095849" class="icon" viewBox="0 0 1024 1024" version="1.1" xmlns="http://www.w3.org/2000/svg" p-id="1153" xmlns:xlink="http://www.w3.org/1999/xlink" width="200" height="200"><path d="M658.247863 512c0-80.566857-65.718857-146.285714-146.285714-146.285714s-146.285714 65.718857-146.285715 146.285714 65.718857 146.285714 146.285715 146.285714 146.285714-65.718857 146.285714-146.285714z m78.848 0c0 124.562286-100.571429 225.133714-225.133714 225.133714S286.828434 636.562286 286.828434 512 387.399863 286.866286 511.962149 286.866286s225.133714 100.571429 225.133714 225.133714z m61.732571-234.276571c0 29.147429-23.442286 52.553143-52.553143 52.553142S693.722149 306.834286 693.722149 277.723429s23.442286-52.553143 52.553142-52.553143 52.553143 23.442286 52.553143 52.553143zM511.962149 151.990857c-64 0-201.142857-5.156571-258.852572 17.700572-20.004571 8.009143-34.852571 17.700571-50.285714 33.133714s-25.161143 30.281143-33.133714 50.285714c-22.857143 57.709714-17.700571 194.852571-17.700572 258.852572s-5.156571 201.142857 17.700572 258.852571c8.009143 20.004571 17.700571 34.852571 33.133714 50.285714s30.281143 25.161143 50.285714 33.133715c57.709714 22.857143 194.852571 17.700571 258.852572 17.700571s201.142857 5.156571 258.852571-17.700571c20.004571-8.009143 34.852571-17.700571 50.285714-33.133715s25.161143-30.281143 33.133715-50.285714c22.857143-57.709714 17.700571-194.852571 17.700571-258.852571s5.156571-201.142857-17.700571-258.852572c-8.009143-20.004571-17.700571-34.852571-33.133715-50.285714s-30.281143-25.161143-50.285714-33.133714C713.105006 146.834286 575.962149 151.990857 511.962149 151.990857zM950.819291 512c0 60.562286 0.585143 120.576-2.852571 181.138286-3.437714 70.290286-19.419429 132.571429-70.838857 183.990857s-113.700571 67.437714-183.990857 70.838857c-60.562286 3.437714-120.576 2.852571-181.138286 2.852571s-120.576 0.585143-181.138286-2.852571c-70.290286-3.437714-132.571429-19.419429-183.990857-70.838857S79.431863 763.428571 76.03072 693.138286C72.593006 632.576 73.178149 572.562286 73.178149 512s-0.585143-120.576 2.852571-181.138286c3.437714-70.290286 19.419429-132.571429 70.838857-183.990857s113.700571-67.437714 183.990857-70.838857c60.562286-3.437714 120.576-2.852571 181.138286-2.852571s120.576-0.585143 181.138286 2.852571c70.290286 3.437714 132.571429 19.419429 183.990857 70.838857s67.437714 113.700571 70.838857 183.990857C951.404434 391.424 950.819291 451.437714 950.819291 512z" fill="#ffffff" p-id="1154"></path></svg>